<svg width="292" height="58" viewBox="0 0 292 58" fill="none" xmlns="http://www.w3.org/2000/svg">
<path d="M60.8867 19.9375L66.4648 33.8594L72.043 19.9375H74.9609V37H72.7109V30.3555L72.9219 23.1836L67.3203 37H65.5977L60.0078 23.2188L60.2305 30.3555V37H57.9805V19.9375H60.8867ZM78.0195 30.543C78.0195 29.3008 78.2617 28.1836 78.7461 27.1914C79.2383 26.1992 79.918 25.4336 80.7852 24.8945C81.6602 24.3555 82.6562 24.0859 83.7734 24.0859C85.5 24.0859 86.8945 24.6836 87.957 25.8789C89.0273 27.0742 89.5625 28.6641 89.5625 30.6484V30.8008C89.5625 32.0352 89.3242 33.1445 88.8477 34.1289C88.3789 35.1055 87.7031 35.8672 86.8203 36.4141C85.9453 36.9609 84.9375 37.2344 83.7969 37.2344C82.0781 37.2344 80.6836 36.6367 79.6133 35.4414C78.5508 34.2461 78.0195 32.6641 78.0195 30.6953V30.543ZM80.1992 30.8008C80.1992 32.207 80.5234 33.3359 81.1719 34.1875C81.8281 35.0391 82.7031 35.4648 83.7969 35.4648C84.8984 35.4648 85.7734 35.0352 86.4219 34.1758C87.0703 33.3086 87.3945 32.0977 87.3945 30.543C87.3945 29.1523 87.0625 28.0273 86.3984 27.168C85.7422 26.3008 84.8672 25.8672 83.7734 25.8672C82.7031 25.8672 81.8398 26.293 81.1836 27.1445C80.5273 27.9961 80.1992 29.2148 80.1992 30.8008ZM98.4102 26.2656C98.082 26.2109 97.7266 26.1836 97.3438 26.1836C95.9219 26.1836 94.957 26.7891 94.4492 28V37H92.2812V24.3203H94.3906L94.4258 25.7852C95.1367 24.6523 96.1445 24.0859 97.4492 24.0859C97.8711 24.0859 98.1914 24.1406 98.4102 24.25V26.2656ZM107.773 37C107.648 36.75 107.547 36.3047 107.469 35.6641C106.461 36.7109 105.258 37.2344 103.859 37.2344C102.609 37.2344 101.582 36.8828 100.777 36.1797C99.9805 35.4688 99.582 34.5703 99.582 33.4844C99.582 32.1641 100.082 31.1406 101.082 30.4141C102.09 29.6797 103.504 29.3125 105.324 29.3125H107.434V28.3164C107.434 27.5586 107.207 26.957 106.754 26.5117C106.301 26.0586 105.633 25.832 104.75 25.832C103.977 25.832 103.328 26.0273 102.805 26.418C102.281 26.8086 102.02 27.2812 102.02 27.8359H99.8398C99.8398 27.2031 100.062 26.5938 100.508 26.0078C100.961 25.4141 101.57 24.9453 102.336 24.6016C103.109 24.2578 103.957 24.0859 104.879 24.0859C106.34 24.0859 107.484 24.4531 108.312 25.1875C109.141 25.9141 109.57 26.918 109.602 28.1992V34.0352C109.602 35.1992 109.75 36.125 110.047 36.8125V37H107.773ZM104.176 35.3477C104.855 35.3477 105.5 35.1719 106.109 34.8203C106.719 34.4688 107.16 34.0117 107.434 33.4492V30.8477H105.734C103.078 30.8477 101.75 31.625 101.75 33.1797C101.75 33.8594 101.977 34.3906 102.43 34.7734C102.883 35.1562 103.465 35.3477 104.176 35.3477ZM115.355 37H113.188V24.3203H115.355V37ZM113.012 20.957C113.012 20.6055 113.117 20.3086 113.328 20.0664C113.547 19.8242 113.867 19.7031 114.289 19.7031C114.711 19.7031 115.031 19.8242 115.25 20.0664C115.469 20.3086 115.578 20.6055 115.578 20.957C115.578 21.3086 115.469 21.6016 115.25 21.8359C115.031 22.0703 114.711 22.1875 114.289 22.1875C113.867 22.1875 113.547 22.0703 113.328 21.8359C113.117 21.6016 113.012 21.3086 113.012 20.957ZM126.219 33.6367C126.219 33.0508 125.996 32.5977 125.551 32.2773C125.113 31.9492 124.344 31.668 123.242 31.4336C122.148 31.1992 121.277 30.918 120.629 30.5898C119.988 30.2617 119.512 29.8711 119.199 29.418C118.895 28.9648 118.742 28.4258 118.742 27.8008C118.742 26.7617 119.18 25.8828 120.055 25.1641C120.938 24.4453 122.062 24.0859 123.43 24.0859C124.867 24.0859 126.031 24.457 126.922 25.1992C127.82 25.9414 128.27 26.8906 128.27 28.0469H126.09C126.09 27.4531 125.836 26.9414 125.328 26.5117C124.828 26.082 124.195 25.8672 123.43 25.8672C122.641 25.8672 122.023 26.0391 121.578 26.3828C121.133 26.7266 120.91 27.1758 120.91 27.7305C120.91 28.2539 121.117 28.6484 121.531 28.9141C121.945 29.1797 122.691 29.4336 123.77 29.6758C124.855 29.918 125.734 30.207 126.406 30.543C127.078 30.8789 127.574 31.2852 127.895 31.7617C128.223 32.2305 128.387 32.8047 128.387 33.4844C128.387 34.6172 127.934 35.5273 127.027 36.2148C126.121 36.8945 124.945 37.2344 123.5 37.2344C122.484 37.2344 121.586 37.0547 120.805 36.6953C120.023 36.3359 119.41 35.8359 118.965 35.1953C118.527 34.5469 118.309 33.8477 118.309 33.0977H120.477C120.516 33.8242 120.805 34.4023 121.344 34.832C121.891 35.2539 122.609 35.4648 123.5 35.4648C124.32 35.4648 124.977 35.3008 125.469 34.9727C125.969 34.6367 126.219 34.1914 126.219 33.6367ZM139.766 35.1602H147.852V37H137.504V19.9375H139.766V35.1602ZM152.434 37H150.266V24.3203H152.434V37ZM150.09 20.957C150.09 20.6055 150.195 20.3086 150.406 20.0664C150.625 19.8242 150.945 19.7031 151.367 19.7031C151.789 19.7031 152.109 19.8242 152.328 20.0664C152.547 20.3086 152.656 20.6055 152.656 20.957C152.656 21.3086 152.547 21.6016 152.328 21.8359C152.109 22.0703 151.789 22.1875 151.367 22.1875C150.945 22.1875 150.625 22.0703 150.406 21.8359C150.195 21.6016 150.09 21.3086 150.09 20.957ZM166.648 30.8008C166.648 32.7383 166.203 34.2969 165.312 35.4766C164.422 36.6484 163.227 37.2344 161.727 37.2344C160.125 37.2344 158.887 36.668 158.012 35.5352L157.906 37H155.914V19H158.082V25.7148C158.957 24.6289 160.164 24.0859 161.703 24.0859C163.242 24.0859 164.449 24.668 165.324 25.832C166.207 26.9961 166.648 28.5898 166.648 30.6133V30.8008ZM164.48 30.5547C164.48 29.0781 164.195 27.9375 163.625 27.1328C163.055 26.3281 162.234 25.9258 161.164 25.9258C159.734 25.9258 158.707 26.5898 158.082 27.918V33.4023C158.746 34.7305 159.781 35.3945 161.188 35.3945C162.227 35.3945 163.035 34.9922 163.613 34.1875C164.191 33.3828 164.48 32.1719 164.48 30.5547ZM175.52 26.2656C175.191 26.2109 174.836 26.1836 174.453 26.1836C173.031 26.1836 172.066 26.7891 171.559 28V37H169.391V24.3203H171.5L171.535 25.7852C172.246 24.6523 173.254 24.0859 174.559 24.0859C174.98 24.0859 175.301 24.1406 175.52 24.25V26.2656ZM184.883 37C184.758 36.75 184.656 36.3047 184.578 35.6641C183.57 36.7109 182.367 37.2344 180.969 37.2344C179.719 37.2344 178.691 36.8828 177.887 36.1797C177.09 35.4688 176.691 34.5703 176.691 33.4844C176.691 32.1641 177.191 31.1406 178.191 30.4141C179.199 29.6797 180.613 29.3125 182.434 29.3125H184.543V28.3164C184.543 27.5586 184.316 26.957 183.863 26.5117C183.41 26.0586 182.742 25.832 181.859 25.832C181.086 25.832 180.438 26.0273 179.914 26.418C179.391 26.8086 179.129 27.2812 179.129 27.8359H176.949C176.949 27.2031 177.172 26.5938 177.617 26.0078C178.07 25.4141 178.68 24.9453 179.445 24.6016C180.219 24.2578 181.066 24.0859 181.988 24.0859C183.449 24.0859 184.594 24.4531 185.422 25.1875C186.25 25.9141 186.68 26.918 186.711 28.1992V34.0352C186.711 35.1992 186.859 36.125 187.156 36.8125V37H184.883ZM181.285 35.3477C181.965 35.3477 182.609 35.1719 183.219 34.8203C183.828 34.4688 184.27 34.0117 184.543 33.4492V30.8477H182.844C180.188 30.8477 178.859 31.625 178.859 33.1797C178.859 33.8594 179.086 34.3906 179.539 34.7734C179.992 35.1562 180.574 35.3477 181.285 35.3477ZM196.238 26.2656C195.91 26.2109 195.555 26.1836 195.172 26.1836C193.75 26.1836 192.785 26.7891 192.277 28V37H190.109V24.3203H192.219L192.254 25.7852C192.965 24.6523 193.973 24.0859 195.277 24.0859C195.699 24.0859 196.02 24.1406 196.238 24.25V26.2656ZM202.602 33.8242L205.555 24.3203H207.875L202.777 38.957C201.988 41.0664 200.734 42.1211 199.016 42.1211L198.605 42.0859L197.797 41.9336V40.1758L198.383 40.2227C199.117 40.2227 199.688 40.0742 200.094 39.7773C200.508 39.4805 200.848 38.9375 201.113 38.1484L201.594 36.8594L197.07 24.3203H199.438L202.602 33.8242Z" fill="white"/>
<path d="M5.57812 41.3125H1.85938C1.64803 41.3125 1.44534 41.2458 1.2959 41.1272C1.14646 41.0085 1.0625 40.8475 1.0625 40.6797V20.8516C1.0625 20.6837 1.14646 20.5228 1.2959 20.4041C1.44534 20.2854 1.64803 20.2188 1.85938 20.2188H5.57812C5.78947 20.2188 5.99216 20.2854 6.1416 20.4041C6.29104 20.5228 6.375 20.6837 6.375 20.8516V40.6797C6.375 40.8475 6.29104 41.0085 6.1416 41.1272C5.99216 41.2458 5.78947 41.3125 5.57812 41.3125Z" fill="white"/>
<path d="M15.9375 26.9688V24.2266C15.9375 24.0587 15.8535 23.8978 15.7041 23.7791C15.5547 23.6604 15.352 23.5938 15.1406 23.5938H8.23438C8.02303 23.5938 7.82034 23.6604 7.6709 23.7791C7.52146 23.8978 7.4375 24.0587 7.4375 24.2266V26.9688H15.9375Z" fill="white"/>
<path d="M7.4375 37.9375V40.6797C7.4375 40.8475 7.52146 41.0085 7.6709 41.1272C7.82034 41.2458 8.02303 41.3125 8.23438 41.3125H15.1406C15.352 41.3125 15.5547 41.2458 15.7041 41.1272C15.8535 41.0085 15.9375 40.8475 15.9375 40.6797V37.9375H7.4375Z" fill="white"/>
<path d="M7.4375 28.6562H15.9375V36.25H7.4375V28.6562Z" fill="white"/>
<path d="M22.5781 41.3125H17.7969C17.5855 41.3125 17.3828 41.2458 17.2334 41.1272C17.084 41.0085 17 40.8475 17 40.6797V18.3203C17 18.1525 17.084 17.9915 17.2334 17.8728C17.3828 17.7542 17.5855 17.6875 17.7969 17.6875H22.5781C22.7895 17.6875 22.9922 17.7542 23.1416 17.8728C23.291 17.9915 23.375 18.1525 23.375 18.3203V40.6797C23.375 40.8475 23.291 41.0085 23.1416 41.1272C22.9922 41.2458 22.7895 41.3125 22.5781 41.3125Z" fill="white"/>
<path d="M24.5039 21.3103L26.4961 40.7076C26.505 40.7927 26.5354 40.8754 26.5855 40.9509C26.6357 41.0264 26.7046 41.0931 26.788 41.1469C26.8715 41.2007 26.9677 41.2405 27.0711 41.264C27.1744 41.2874 27.2826 41.2941 27.3893 41.2835L32.1812 40.8089C32.3852 40.7886 32.5714 40.7065 32.701 40.5797C32.8306 40.453 32.8934 40.2913 32.8764 40.1286L30.8789 20.8099C30.8701 20.726 30.8403 20.6443 30.7913 20.5697C30.7423 20.495 30.6749 20.4289 30.5933 20.3752C30.5117 20.3214 30.4174 20.2812 30.3159 20.2568C30.2144 20.2324 30.1078 20.2243 30.0024 20.233L25.2125 20.629C25.0058 20.6467 24.816 20.7279 24.6837 20.8552C24.5513 20.9825 24.4868 21.1458 24.5039 21.3103Z" fill="white"/>
</svg>
